<?xml version="1.0" encoding="UTF-8" standalone="no"?>
<svg xmlns="http://www.w3.org/2000/svg" aria-labelledby="title desc" class="img" viewBox="0 0 150 150">
  <title>
    CAMat
  </title>
  <desc>
    O símbolo da integral de Riemman
  </desc>
  <path fill="#ba3925" d="M91.65 1.422C69.011 9.127 60.312 30.924 61.682 62.23c.15 3.408 1.134 9.27 2.315 16.24 3.568 20.97 8.86 52.28-1.436 56.755-2.865.904-3.624-1.825-4.257-3.833-2.385-7.564-10.596-12.927-17.964-10.604-7.368 2.324-11.408 10.34-9.021 17.905 1.183 3.751 4.615 7.419 7.154 8.74 5.599 2.914 12.79 3.417 19.877 1.144 22.639-7.705 31.338-29.502 29.968-60.807-.15-3.407-1.134-9.27-2.315-16.24-3.568-20.97-8.86-52.28 1.436-56.755 2.865-.904 3.624 1.825 4.257 3.833 2.385 7.564 10.596 12.927 17.964 10.604 7.368-2.324 11.408-10.34 9.021-17.905-1.183-3.751-4.615-7.419-7.154-8.74C105.928-.348 98.737-.85 91.65 1.422z"/>
</svg>
