<?xml version="1.0" encoding="UTF-8" standalone="no"?>
<svg
   viewBox="0 0 414.06541 87.107699"
   role="img"
   aria-labelledby="title desc"
   version="1.1"
   alt="CAMat"
   class="img">
  <title>CAMat</title>
  <desc>
    O símbolo de uma integral ao lado do texto &quot;CAMat&quot; em letras garrafais
  </desc>
  <g
     transform="translate(-75.2965,-199.3384)">
    <path
       d="m 155.05,267.14 q -1.1492,1.6088 -2.4133,3.2177 -1.1492,1.4939 -2.5282,2.8729 -3.7923,4.0221 -8.9636,7.01 -2.4133,1.4939 -5.0564,2.6431 -2.6431,1.1492 -5.5161,1.9536 -5.8608,1.6088 -11.722,1.6088 -8.9636,0 -16.893,-3.4475 -7.9293,-3.4475 -13.905,-9.4233 -5.8608,-5.8608 -9.3084,-13.79 -3.4476,-7.9292 -3.4475,-16.893 1e-4,-8.9638 3.4475,-16.893 3.4475,-7.8144 9.3084,-13.905 6.0907,-5.8608 13.905,-9.3084 7.9293,-3.4475 16.893,-3.4475 5.8608,0 11.722,1.6088 5.7459,1.6088 10.572,4.4818 2.5282,1.4939 4.7116,3.3326 2.2984,1.7238 4.252,3.6774 2.873,2.9879 4.9415,6.0907 0.80443,1.2641 0.34476,2.5282 -0.45967,1.1492 -1.8387,1.7238 l -8.5039,3.4475 q -1.2641,0.57459 -2.873,0.22984 -1.4939,-0.45968 -2.4133,-1.6089 -0.57459,-0.57459 -1.1492,-1.1492 -0.57459,-0.6895 -1.1492,-1.2641 -1.2641,-1.2641 -2.6431,-2.2984 -1.2641,-1.0343 -2.758,-1.9536 -1.4939,-0.91934 -3.1028,-1.6088 -1.6089,-0.68946 -3.2177,-1.2641 -3.3326,-1.0343 -6.8951,-1.0343 -5.631,0 -10.802,2.2984 -5.0564,2.4133 -8.6188,6.3205 -3.6774,4.0221 -5.8608,9.0785 -2.1834,5.1713 -2.1834,10.917 0,5.8608 2.1834,10.917 2.1834,5.0562 5.8608,9.0785 3.5625,4.0221 8.6188,6.2056 4.9415,2.4133 10.802,2.4133 3.5624,0 6.8951,-1.0343 1.6089,-0.57459 3.2177,-1.2641 1.6088,-0.68951 3.1028,-1.6089 1.4939,-0.91934 2.758,-1.9536 1.379,-1.1492 2.6431,-2.4133 0.57459,-0.57459 1.1492,-1.1492 0.57459,-0.68951 1.1492,-1.2641 0.91934,-1.1492 2.4133,-1.6089 1.6088,-0.45967 2.873,0.11492 l 8.5039,3.4475 q 1.379,0.57459 1.8387,1.8387 0.4597,1.26411 -0.34476,2.5282 z" />
    <path
       d="m 158.74,281.73 39.877,-79.638 q 0.68951,-1.379 2.2984,-1.379 1.6089,0 2.2984,1.379 l 39.877,79.638 q 0.68951,1.2641 0.11492,2.1834 -0.45967,0.91935 -1.9536,0.91935 h -10.458 q -1.4939,0 -2.9879,-0.91935 -1.4939,-0.91934 -2.0685,-2.2984 l -3.4475,-6.8951 q -0.6895,-1.2641 -2.1834,-2.1834 -1.379,-0.91935 -2.873,-0.91935 h -32.637 q -1.4939,0 -2.9879,0.91935 -1.4939,0.91934 -2.0685,2.2984 l -3.3326,6.7802 q -0.68951,1.379 -2.1834,2.2984 -1.379,0.91935 -2.873,0.91935 h -10.458 q -1.4939,0 -2.0685,-0.91935 -0.45967,-0.91934 0.11492,-2.1834 z m 33.671,-24.133 h 17.008 q 1.4939,0 1.9536,-0.91934 0.57459,-1.0343 0,-2.2984 l -8.9636,-18.961 q -0.57459,-1.379 -1.4939,-1.379 -0.91934,0 -1.4939,1.379 l -9.0785,18.961 q -0.57459,1.379 0,2.2984 0.57459,0.91934 2.0685,0.91934 z" />
    <path
       d="m 339.21,202.67 v 78.604 q 0,1.4939 -1.0343,2.5282 -1.0343,1.0343 -2.4133,1.0343 h -9.0785 q -1.4939,0 -2.5282,-1.0343 -1.0343,-1.0343 -1.0343,-2.5282 v -35.395 q 0,-1.4939 -0.68951,-1.7238 -0.57459,-0.34475 -1.4939,0.91934 l -21.834,26.086 q -0.91935,1.1492 -2.2984,1.1492 -1.2641,0 -2.1834,-1.1492 l -21.72,-26.086 q -0.91934,-1.1492 -1.6088,-0.91934 -0.68946,0.22986 -0.68951,1.7238 v 35.395 q 0,1.4939 -1.0343,2.5282 -1.0343,1.0343 -2.5282,1.0343 h -8.9636 q -1.4939,0 -2.5282,-1.0343 -1.0343,-1.0343 -1.0343,-2.5282 V 202.67 q 0,-1.4939 1.379,-1.7238 1.379,-0.22984 2.2984,0.91934 l 36.314,44.818 q 0.91934,1.0343 2.2984,1.0343 1.379,0 2.2984,-1.0343 l 36.429,-44.818 q 0.91934,-1.1492 2.2984,-0.91934 1.379,0.22983 1.379,1.7238 z" />
    <path
       d="m 349.3,281.73 39.877,-79.638 q 0.68951,-1.379 2.2984,-1.379 1.6089,0 2.2984,1.379 l 39.877,79.638 q 0.68951,1.2641 0.11492,2.1834 -0.45967,0.91935 -1.9536,0.91935 h -10.458 q -1.4939,0 -2.9879,-0.91935 -1.4939,-0.91934 -2.0685,-2.2984 l -3.4475,-6.8951 q -0.6895,-1.2641 -2.1834,-2.1834 -1.379,-0.91935 -2.873,-0.91935 h -32.637 q -1.4939,0 -2.9879,0.91935 -1.4939,0.91934 -2.0685,2.2984 l -3.3326,6.7802 q -0.68951,1.379 -2.1834,2.2984 -1.379,0.91935 -2.873,0.91935 h -10.458 q -1.4939,0 -2.0685,-0.91935 -0.45967,-0.91934 0.11492,-2.1834 z m 33.671,-24.133 h 17.008 q 1.4939,0 1.9536,-0.91934 0.57459,-1.0343 0,-2.2984 l -8.9636,-18.961 q -0.57459,-1.379 -1.4939,-1.379 -0.91934,0 -1.4939,1.379 l -9.0785,18.961 q -0.57459,1.379 0,2.2984 0.57459,0.91934 2.0685,0.91934 z" />
    <path
       d="m 485.8,214.97 h -16.893 q -1.4939,0 -2.5282,1.0343 -1.0343,1.0343 -1.0343,2.5282 v 62.745 q 0,1.4939 -1.0343,2.5282 -1.0343,1.0343 -2.5282,1.0343 h -8.9636 q -1.4939,0 -2.5282,-1.0343 -1.0343,-1.0343 -1.0343,-2.5282 v -62.745 q 0,-1.4939 -1.0343,-2.5282 -1.0343,-1.0343 -2.5282,-1.0343 h -17.008 q -1.4939,0 -2.5282,-1.0343 -1.0343,-1.0343 -1.0343,-2.5282 v -7.1249 q 0,-1.4939 1.0343,-2.5282 1.0343,-1.0343 2.5282,-1.0343 h 57.114 q 1.4939,0 2.5282,1.0343 1.0343,1.0343 1.0343,2.5282 v 7.1249 q 0,1.4939 -1.0343,2.5282 -1.0343,1.0343 -2.5282,1.0343 z" />
  </g>
</svg>
