<?xml version="1.0" encoding="UTF-8" standalone="no"?>
<svg xmlns="http://www.w3.org/2000/svg" aria-labelledby="title desc" class="img" viewBox="0 0 256 53.8552">
  <title>CAMat</title>
  <desc>Texto &quot;CAMat&quot; em letras garrafais</desc>
  <path d="M49.3084 41.919q-.7105.9947-1.492 1.9894-.7106.9236-1.5631 1.7762-2.3447 2.4867-5.5419 4.334-1.492.9236-3.1261 1.6341-1.6342.7105-3.4104 1.2078-3.6235.9947-7.2473.9947-5.5418 0-10.4442-2.1315-4.9024-2.1314-8.597-5.826-3.6234-3.6235-5.755-8.5258Q0 32.4696 0 26.9276q0-5.542 2.1315-10.4442 2.1314-4.8314 5.755-8.597 3.7656-3.6234 8.5969-5.755Q21.3857 0 26.9276 0q3.6235 0 7.2473.9947 3.5524.9946 6.5362 2.7709 1.563.9236 2.913 2.0604 1.421 1.0657 2.6288 2.2736 1.7763 1.8473 3.0552 3.7656.4973.7816.2131 1.5631-.2842.7105-1.1368 1.0658l-5.2576 2.1314q-.7815.3553-1.7762.1421-.9237-.2842-1.492-.9947l-.7106-.7105q-.3552-.4263-.7105-.7816-.7815-.7815-1.6341-1.421-.7816-.6394-1.7052-1.2078-.9236-.5684-1.9183-.9947-.9947-.4262-1.9894-.7815-2.0604-.6395-4.263-.6395-3.4814 0-6.6784 1.421-3.1262 1.492-5.3287 3.9078-2.2735 2.4867-3.6235 5.6128-1.3499 3.1972-1.3499 6.7496 0 3.6235 1.35 6.7495 1.3499 3.126 3.6234 5.6129 2.2026 2.4867 5.3287 3.8367 3.0551 1.492 6.6784 1.492 2.2025 0 4.263-.6395.9947-.3552 1.9894-.7815.9946-.4263 1.9183-.9947.9236-.5684 1.7052-1.2079.8526-.7105 1.6341-1.492l.7105-.7105q.3552-.4263.7105-.7815.5684-.7106 1.492-.9948.9947-.2842 1.7763.071l5.2576 2.1315q.8526.3553 1.1368 1.1368.2842.7816-.2131 1.5631zM51.5898 50.9394L76.244 1.7024Q76.6704.85 77.6651.85t1.421.8525l24.6544 49.237q.4263.7816.071 1.35-.2842.5683-1.2078.5683h-6.4658q-.9236 0-1.8473-.5684-.9236-.5684-1.2788-1.421l-2.1315-4.263q-.4263-.7815-1.3499-1.3499-.8526-.5683-1.7763-.5683H67.576q-.9236 0-1.8473.5683-.9236.5684-1.2789 1.421l-2.0604 4.192q-.4263.8526-1.3499 1.421-.8526.5684-1.7763.5684h-6.4657q-.9236 0-1.2789-.5684-.2842-.5684.071-1.35zM72.4072 36.019h10.5154q.9236 0 1.2078-.5684.3552-.6395 0-1.421l-5.5418-11.7229q-.3553-.8525-.9237-.8525t-.9236.8525l-5.6129 11.7229q-.3552.8525 0 1.421.3553.5684 1.279.5684zM163.1671 2.0598v48.5977q0 .9236-.6395 1.563-.6394.6395-1.492.6395h-5.6129q-.9236 0-1.563-.6394-.6395-.6395-.6395-1.5631V28.7742q0-.9236-.4263-1.0658-.3553-.2131-.9236.5684l-13.4991 16.128q-.5684.7105-1.421.7105-.7816 0-1.35-.7106l-13.4285-16.1279q-.5684-.7105-.9947-.5684t-.4263 1.0658v21.8833q0 .9236-.6395 1.563-.6394.6395-1.563.6395h-5.5419q-.9236 0-1.563-.6394-.6395-.6395-.6395-1.5631V2.0598q0-.9236.8526-1.0658.8525-.142 1.421.5684l22.4514 27.7092q.5684.6395 1.421.6395t1.421-.6395l22.5226-27.7092q.5684-.7105 1.421-.5684t.8526 1.0658zM169.4054 50.9394l24.6543-49.237Q194.486.85 195.4807.85t1.421.8525l24.6544 49.237q.4263.7816.071 1.35-.2842.5683-1.2078.5683h-6.4658q-.9236 0-1.8473-.5684-.9236-.5684-1.2788-1.421l-2.1315-4.263q-.4263-.7815-1.35-1.3499-.8525-.5683-1.7762-.5683h-20.1781q-.9236 0-1.8473.5683-.9236.5684-1.2789 1.421l-2.0604 4.192q-.4263.8526-1.3499 1.421-.8526.5684-1.7763.5684h-6.4657q-.9236 0-1.2789-.5684-.2842-.5684.071-1.35zm20.8174-14.9204h10.5153q.9237 0 1.2079-.5684.3552-.6395 0-1.421l-5.5419-11.7229q-.3552-.8525-.9236-.8525t-.9236.8525l-5.6129 11.7229q-.3552.8525 0 1.421.3553.5684 1.2789.5684zM253.7978 9.6644h-10.4442q-.9237 0-1.5631.6395-.6395.6394-.6395 1.563v38.7928q0 .9236-.6395 1.563-.6394.6395-1.563.6395h-5.5419q-.9236 0-1.563-.6395-.6395-.6394-.6395-1.563V11.8669q0-.9236-.6395-1.563-.6395-.6395-1.563-.6395h-10.5154q-.9237 0-1.5631-.6395-.6395-.6394-.6395-1.563V3.0567q0-.9236.6395-1.563.6394-.6395 1.563-.6395h35.3113q.9237 0 1.5631.6394.6395.6395.6395 1.5631v4.405q0 .9237-.6395 1.5631-.6394.6395-1.563.6395z"/>
</svg>
