<?xml version="1.0" encoding="UTF-8" standalone="no"?>
<svg xmlns="http://www.w3.org/2000/svg" aria-labelledby="title desc" class="img" viewBox="0 0 511.99997 238.52349">
  <title>CAMat</title>
  <desc>O símbolo da integral de Reimman ao lado do texto &quot;CAMat&quot; em letras garrafais</desc>
  <path d="M120.87831.00067C99.01758.11094 84.33058 16.44505 73.52461 52.6666c-5.157 17.28615-8.35365 33.62043-12.49094 63.81134-5.22298 38.11586-8.11584 57.44722-9.9913 66.78958-5.66874 28.24196-10.84573 41.1331-16.99512 42.3102-1.98948.38169-3.08516-1.68019-3.5102-6.60442-.48347-5.61408-.9548-7.21204-2.98009-10.10908-2.39472-3.42576-5.84298-5.01787-11.3534-5.24782-9.8343-.41091-15.84576 5.09947-16.19258 14.84519-.2667 7.48294 4.34187 14.23396 11.97371 17.53814 5.10518 2.21095 13.33548 3.10304 19.712 2.13704 2.52855-.38262 6.11014-1.31225 7.95732-2.06526 4.26923-1.73879 13.47907-9.19176 16.63435-13.46099 6.41791-8.68411 12.06238-21.26792 16.83683-37.48758-.32132 2.2056-.48779 4.45888-.48779 6.76087-.0012 6.34134 1.21844 12.31594 3.65746 17.92468 2.43965 5.60937 5.73233 10.48743 9.87716 14.63352 4.22777 4.2265 9.14626 7.559 14.75501 9.99865 5.60937 2.43902 11.58397 3.6593 17.92467 3.65929 4.14672 0 8.29211-.57091 12.43757-1.71 2.03189-.5686 3.98361-1.25777 5.8534-2.07077 1.87043-.81365 3.65857-1.74907 5.36563-2.80523 3.6579-2.11356 6.82806-4.59334 9.51087-7.43824.9751-.97574 1.87009-1.99141 2.68372-3.04819.89343-1.13846 1.74556-2.27665 2.55857-3.41449v-.002c.56923-.89406.69175-1.78663.3663-2.68005-.32483-.89532-.9754-1.54647-1.95113-1.95298l-9.02309-3.65745c-.89531-.40651-1.91098-.44695-3.04819-.12149-1.05678.32419-1.91133.89268-2.56225 1.70632-.40587.40587-.81082.85184-1.21669 1.34002l-1.22038 1.22038c-.89406.89406-1.82948 1.7474-2.80522 2.56041-.89405.73133-1.86992 1.42356-2.92671 2.07446-1.05678.64966-2.15454 1.21814-3.293 1.70633-1.1372.48818-2.2754.93415-3.41448 1.34002-2.35735.73196-4.79606 1.09889-7.31676 1.09889-4.14546 0-7.96561-.85333-11.46016-2.5604-3.57748-1.54433-6.62634-3.73927-9.1464-6.58417-2.60113-2.84615-4.67353-6.05796-6.21787-9.63418-1.54497-3.57749-2.31743-7.43803-2.31743-11.58349 0-4.06441.77246-7.92558 2.31743-11.58349 1.54434-3.57623 3.61674-6.78804 6.21786-9.63419 2.52007-2.76385 5.56956-4.99858 9.14641-6.70565 3.65853-1.62539 7.47927-2.43891 11.462-2.43891 2.52007 0 4.95757.36572 7.31492 1.09705 1.13846.40587 2.27665.85368 3.41448 1.34186 1.13846.48755 2.23622 1.05604 3.293 1.70632 1.05679.65028 2.03266 1.34129 2.92671 2.07262.97574.7326 1.91116 1.54487 2.80522 2.43892.4065.40588.81266.85247 1.21853 1.34003l1.21854 1.22038c.65092.81238 1.50547 1.38208 2.56225 1.70816 1.13846.24378 2.15413.16232 3.04819-.24481l9.02309-3.65746c.9751-.40587 1.62568-1.01601 1.95113-1.82965.32545-.89406.20293-1.7872-.3663-2.68188-1.46329-2.19462-3.20978-4.34912-5.24229-6.46269-1.38225-1.38223-2.88616-2.68338-4.51154-3.90226-1.54435-1.30056-3.21059-2.47919-4.99933-3.53597-3.4135-2.03316-7.15399-3.61732-11.21903-4.75452-4.14609-1.13847-8.29148-1.70817-12.43757-1.70817-6.3407 0-12.3153 1.21844-17.92467 3.65746-5.5277 2.43902-10.4462 5.7317-14.755 9.87717-4.14484 4.30818-7.43752 9.22546-9.87717 14.75316-.1507.34676-.28382.69964-.4252 1.0492.07334-.29281.14988-.57587.22272-.87065 4.11939-16.67074 6.55246-30.67554 10.77174-62.03507 4.18536-31.10602 7.04556-49.69394 9.42804-61.24725 5.02506-24.36855 10.21449-36.6298 16.08397-38.00481 1.73503-.40525 2.05021-.28954 2.69295.9903.39959.79635.84515 3.33823.99029 5.64908.37132 5.93734 2.6063 10.53697 6.30254 12.97505 2.3787 1.5701 3.67022 1.9713 7.48425 2.32848 5.02695.47122 7.99461-.1856 10.99816-2.43708 5.47554-4.10242 7.28536-14.57902 3.59854-20.83113C139.84755 3.7313 132.10365-.05592 120.87831.00062zm85.0511 147.12667c-1.13783 0-1.94953.48825-2.43708 1.46335l-42.31387 84.50258c-.40713.89406-.44694 1.66715-.12149 2.31743.4065.65028 1.13795.97558 2.19411.97558h11.0957c1.05679 0 2.07308-.3253 3.04819-.97558 1.05678-.64964 1.83047-1.46255 2.31928-2.43891l3.53413-7.19343c.40713-.97574 1.13916-1.78864 2.19594-2.43892 1.05679-.65028 2.11289-.97557 3.16968-.97557h34.63082c1.05616 0 2.07182.32407 3.04818.97372 1.05616.65091 1.82926 1.42338 2.31744 2.31744l3.65746 7.31676c.40587.97573 1.13732 1.78863 2.1941 2.43891 1.05741.65028 2.11473.97558 3.17152.97558h11.09755c1.05615 0 1.74654-.3253 2.07262-.97558.4065-.65028.36669-1.42337-.12149-2.31743l-42.31388-84.50258c-.48691-.9751-1.29982-1.46335-2.43891-1.46335zm202.20207 0c-1.13784 0-1.95074.48825-2.43892 1.46335l-42.31387 84.50258h.002c-.40713.89406-.44878 1.66715-.12333 2.31743.40714.65028 1.13979.97558 2.19595.97558h11.09571c1.05678 0 2.07245-.3253 3.04818-.97558 1.05679-.64964 1.82926-1.46255 2.31744-2.43891l3.53597-7.19343c.40713-.97574 1.13917-1.78864 2.19595-2.43892 1.05678-.65028 2.1129-.97557 3.16968-.97557h34.63069c1.05616 0 2.07367.32407 3.05003.97372 1.05616.65091 1.82741 1.42338 2.31559 2.31744l3.65931 7.31676c.40587.97573 1.13732 1.78863 2.1941 2.43891s2.11289.97558 3.16967.97558h11.09755c1.05679 0 1.74717-.3253 2.07262-.97558.4065-.65028.36669-1.42337-.12148-2.31743l-42.31387-84.50258c-.48756-.9751-1.30046-1.46335-2.43892-1.46335zm39.48288.008c-1.05616 0-1.94993.36572-2.68188 1.09705-.73134.73197-1.09707 1.62816-1.09707 2.68558v7.55789c0 1.05679.36573 1.95115 1.09707 2.68373.73258.73133 1.62636 1.09705 2.68188 1.09705h18.04801c1.05678 0 1.95177.36573 2.68372 1.09705.73134.7326 1.09706 1.62637 1.09706 2.6819v66.57974c0 1.05616.36572 1.94993 1.09705 2.68189.73259.73133 1.62758 1.09706 2.68374 1.09706h9.51086c1.05679 0 1.94994-.36573 2.6819-1.09706.73133-.73259 1.09705-1.62637 1.09705-2.68189v-66.5779c0-1.05678.36693-1.95178 1.09889-2.68374.73133-.73132 1.6251-1.09705 2.68189-1.09705h17.92468c1.05678 0 1.95114-.36572 2.68374-1.09705.73132-.73258 1.09705-1.62694 1.09705-2.68373v-7.56019c0-1.05678-.36573-1.95177-1.09705-2.68374-.7326-.73133-1.62696-1.09705-2.68374-1.09705zm-182.64285.20985c-.2234-.0203-.45769-.01-.70131.0313-.97636.1621-1.46519.77103-1.46519 1.82781v83.40552c0 1.05679.3663 1.95178 1.0989 2.68374.73133.73133 1.6251 1.09705 2.68188 1.09705h9.51087c1.05678 0 1.95115-.36572 2.68373-1.09705.73071-.73196 1.09521-1.62695 1.09521-2.68374v-37.55615c0-1.05615.24442-1.6663.7326-1.82965.48692-.16273 1.05542.16256 1.70632.97556l23.04733 27.67852c.65028.81364 1.42213 1.22038 2.31744 1.22038.97448 0 1.78801-.40553 2.43892-1.21854l23.16697-27.68036c.65028-.89468 1.17896-1.21934 1.58484-.97556.48818.16272.73259.77223.73259 1.82965v37.55567c0 1.05679.3651 1.95178 1.09705 2.68374.73134.73196 1.62633 1.09705 2.68374 1.09705h9.63051c.97573 0 1.83028-.36509 2.56224-1.09705.73133-.73196 1.09706-1.62695 1.09706-2.68374v-83.40552h.002c.00062-1.05678-.48762-1.66692-1.46336-1.82964-.97573-.16273-1.78863.16376-2.43892.97741l-38.65456 47.55616c-.64966.73133-1.46319 1.09706-2.43892 1.09706-.97574 0-1.78864-.36694-2.43892-1.0989l-38.53309-47.55432c-.48818-.61023-1.06559-.9462-1.73578-1.00686zm-59.0421 35.14621c.65028 0 1.17833.48761 1.58483 1.46334l9.51271 20.11695c.40588.89406.40588 1.70696 0 2.43891-.32545.65028-1.01768.97558-2.07446.97558h-18.04617c-1.05678 0-1.78822-.32408-2.1941-.97373-.40713-.65028-.40713-1.4644 0-2.44076l9.63235-20.11695c.40588-.97573.93393-1.46334 1.58484-1.46334zm202.20207 0c.64965 0 1.1777.48761 1.58484 1.46334l9.5127 20.11695c.40587.89406.40587 1.70696 0 2.43891-.32546.65028-1.01768.97558-2.07446.97558H399.1064c-1.05572-.00041-1.78665-.32449-2.19227-.97373-.40713-.65028-.40713-1.4644 0-2.44076l9.63236-20.11695c.4065-.97573.93392-1.46334 1.58483-1.46334z"/>
</svg>
