<?xml version="1.0" encoding="UTF-8" standalone="no"?>
<!-- Created with Inkscape (http://www.inkscape.org/) -->

<svg
   xmlns:dc="http://purl.org/dc/elements/1.1/"
   xmlns:cc="http://creativecommons.org/ns#"
   xmlns:rdf="http://www.w3.org/1999/02/22-rdf-syntax-ns#"
   xmlns:svg="http://www.w3.org/2000/svg"
   xmlns="http://www.w3.org/2000/svg"
   xmlns:sodipodi="http://sodipodi.sourceforge.net/DTD/sodipodi-0.dtd"
   xmlns:inkscape="http://www.inkscape.org/namespaces/inkscape"
   width="1870"
   height="939.51965"
   viewBox="0 0 494.7693 248.58138"
   version="1.1"
   id="svg8"
   inkscape:export-filename="C:\Users\helena\Pictures\camat-logo\camat-teste5.png"
   inkscape:export-xdpi="96.287994"
   inkscape:export-ydpi="96.287994"
   inkscape:version="0.92.4 (5da689c313, 2019-01-14)"
   sodipodi:docname="camat-logo.svg">
  <defs
     id="defs2">
    <filter
       style="color-interpolation-filters:sRGB"
       inkscape:label="Invert"
       id="filter1028">
      <feColorMatrix
         type="hueRotate"
         values="180"
         result="color1"
         id="feColorMatrix1024" />
      <feColorMatrix
         values="-1 0 0 0 1 0 -1 0 0 1 0 0 -1 0 1 -0.21 -0.72 -0.07 1 0 "
         result="color2"
         id="feColorMatrix1026" />
    </filter>
  </defs>
  <sodipodi:namedview
     id="base"
     pagecolor="#ffffff"
     bordercolor="#666666"
     borderopacity="1.0"
     inkscape:pageopacity="0.0"
     inkscape:pageshadow="2"
     inkscape:zoom="0.1767767"
     inkscape:cx="885.28829"
     inkscape:cy="1011.0459"
     inkscape:document-units="mm"
     inkscape:current-layer="layer1"
     showgrid="false"
     inkscape:pagecheckerboard="true"
     showborder="true"
     inkscape:window-width="1366"
     inkscape:window-height="705"
     inkscape:window-x="-8"
     inkscape:window-y="-8"
     inkscape:window-maximized="1"
     units="px"
     inkscape:snap-global="false">
    <sodipodi:guide
       position="496.90595,254.44072"
       orientation="-1122.5197,0"
       id="guide968"
       inkscape:locked="false" />
    <sodipodi:guide
       position="669.02713,10.476971"
       orientation="0,-793.70081"
       id="guide970"
       inkscape:locked="false" />
    <sodipodi:guide
       position="-2.9934094,245.46046"
       orientation="1122.5197,0"
       id="guide972"
       inkscape:locked="false" />
  </sodipodi:namedview>
  <metadata
     id="metadata5">
    <rdf:RDF>
      <cc:Work
         rdf:about="">
        <dc:format>image/svg+xml</dc:format>
        <dc:type
           rdf:resource="http://purl.org/dc/dcmitype/StillImage" />
        <dc:title></dc:title>
      </cc:Work>
    </rdf:RDF>
  </metadata>
  <g
     inkscape:label="Camada 1"
     inkscape:groupmode="layer"
     id="layer1"
     transform="translate(0,-48.416502)">
    <rect
       inkscape:transform-center-y="-5.3279654"
       inkscape:transform-center-x="14.295607"
       transform="rotate(39.212021)"
       style="opacity:1;fill:#ffffff;fill-opacity:1;stroke:none;stroke-width:0.0281361;stroke-miterlimit:4;stroke-dasharray:none;stroke-opacity:1"
       id="rect938"
       width="2.6203942"
       height="1.3229175"
       x="274.01169"
       y="113.63017"
       ry="0.023004619" />
    <g
       id="g885">
      <path
         d="m 155.05065,267.13882 q -1.14918,1.60885 -2.41327,3.21771 -1.14918,1.49393 -2.5282,2.87294 -3.79229,4.02213 -8.9636,7.01 -2.41328,1.49393 -5.05639,2.64311 -2.64311,1.14918 -5.51606,1.95361 -5.86082,1.60885 -11.72163,1.60885 -8.9636,0 -16.89294,-3.44754 -7.929342,-3.44754 -13.905076,-9.42327 -5.860816,-5.86082 -9.308355,-13.79016 -3.447539,-7.92934 -3.447539,-16.89294 0,-8.9636 3.447539,-16.89294 3.447539,-7.81442 9.308355,-13.90507 6.090652,-5.86082 13.905076,-9.30835 7.92934,-3.44754 16.89294,-3.44754 5.86081,0 11.72163,1.60885 5.7459,1.60885 10.57245,4.4818 2.5282,1.49393 4.71164,3.33262 2.29836,1.72377 4.25196,3.67737 2.87295,2.98787 4.94147,6.09066 0.80443,1.26409 0.34476,2.52819 -0.45967,1.14918 -1.83869,1.72377 l -8.50393,3.44754 q -1.2641,0.57459 -2.87295,0.22984 -1.49393,-0.45968 -2.41327,-1.60886 -0.57459,-0.57459 -1.14918,-1.14918 -0.57459,-0.6895 -1.14918,-1.26409 -1.2641,-1.2641 -2.64312,-2.29836 -1.26409,-1.03426 -2.75803,-1.95361 -1.49393,-0.91934 -3.10278,-1.60885 -1.60885,-0.68951 -3.21771,-1.2641 -3.33262,-1.03426 -6.89507,-1.03426 -5.63098,0 -10.80229,2.29836 -5.05639,2.41328 -8.618848,6.32049 -3.677375,4.02213 -5.860816,9.07852 -2.183441,5.17131 -2.183441,10.9172 0,5.86082 2.183441,10.91721 2.183441,5.05639 5.860816,9.07852 3.562458,4.02213 8.618848,6.20557 4.94147,2.41328 10.80229,2.41328 3.56245,0 6.89507,-1.03427 1.60886,-0.57459 3.21771,-1.26409 1.60885,-0.68951 3.10278,-1.60886 1.49394,-0.91934 2.75803,-1.9536 1.37902,-1.14918 2.64312,-2.41328 0.57459,-0.57459 1.14918,-1.14918 0.57459,-0.68951 1.14918,-1.26409 0.91934,-1.14918 2.41327,-1.60886 1.60885,-0.45967 2.87295,0.11492 l 8.50393,3.44754 q 1.37902,0.57459 1.83869,1.83869 0.45967,1.2641 -0.34476,2.52819 z"
         style="font-style:normal;font-variant:normal;font-weight:normal;font-stretch:normal;font-size:192px;line-height:1.25;font-family:'Geometos Rounded';-inkscape-font-specification:'Geometos Rounded';text-align:end;letter-spacing:0px;word-spacing:0px;text-anchor:end;fill:#ffffff;fill-opacity:1;stroke:none;stroke-width:0.59853107"
         id="path834"
         inkscape:connector-curvature="0" />
      <path
         d="m 158.7388,281.7334 39.87653,-79.63814 q 0.68951,-1.37902 2.29836,-1.37902 1.60886,0 2.29836,1.37902 l 39.87653,79.63814 q 0.68951,1.2641 0.11492,2.18344 -0.45967,0.91935 -1.9536,0.91935 h -10.45754 q -1.49393,0 -2.98786,-0.91935 -1.49394,-0.91934 -2.06853,-2.29835 l -3.44754,-6.89508 q -0.6895,-1.2641 -2.18344,-2.18344 -1.37901,-0.91935 -2.87295,-0.91935 h -32.6367 q -1.49393,0 -2.98786,0.91935 -1.49394,0.91934 -2.06853,2.29836 l -3.33262,6.78016 q -0.68951,1.37901 -2.18344,2.29835 -1.37901,0.91935 -2.87295,0.91935 h -10.45753 q -1.49394,0 -2.06853,-0.91935 -0.45967,-0.91934 0.11492,-2.18344 z m 33.67096,-24.13277 h 17.00786 q 1.49394,0 1.95361,-0.91934 0.57459,-1.03426 0,-2.29836 l -8.9636,-18.96146 q -0.57459,-1.37902 -1.49394,-1.37902 -0.91934,0 -1.49393,1.37902 l -9.07852,18.96146 q -0.57459,1.37901 0,2.29836 0.57459,0.91934 2.06852,0.91934 z"
         style="font-style:normal;font-variant:normal;font-weight:normal;font-stretch:normal;font-size:192px;line-height:1.25;font-family:'Geometos Rounded';-inkscape-font-specification:'Geometos Rounded';text-align:end;letter-spacing:0px;word-spacing:0px;text-anchor:end;fill:#ffffff;fill-opacity:1;stroke:none;stroke-width:0.59853107"
         id="path836"
         inkscape:connector-curvature="0" />
      <path
         d="m 339.21028,202.66985 v 78.60388 q 0,1.49394 -1.03427,2.5282 -1.03426,1.03426 -2.41327,1.03426 h -9.07852 q -1.49394,0 -2.5282,-1.03426 -1.03426,-1.03426 -1.03426,-2.5282 V 245.879 q 0,-1.49393 -0.68951,-1.72377 -0.57459,-0.34475 -1.49393,0.91934 l -21.83441,26.08638 q -0.91935,1.14918 -2.29836,1.14918 -1.2641,0 -2.18344,-1.14918 l -21.7195,-26.08638 q -0.91934,-1.14918 -1.60885,-0.91934 -0.68951,0.22984 -0.68951,1.72377 v 35.39473 q 0,1.49394 -1.03426,2.5282 -1.03426,1.03426 -2.52819,1.03426 h -8.9636 q -1.49394,0 -2.5282,-1.03426 -1.03426,-1.03426 -1.03426,-2.5282 v -78.60388 q 0,-1.49394 1.37902,-1.72377 1.37901,-0.22984 2.29835,0.91934 l 36.31408,44.81801 q 0.91934,1.03426 2.29836,1.03426 1.37901,0 2.29836,-1.03426 l 36.42899,-44.81801 q 0.91934,-1.14918 2.29836,-0.91934 1.37902,0.22983 1.37902,1.72377 z"
         style="font-style:normal;font-variant:normal;font-weight:normal;font-stretch:normal;font-size:192px;line-height:1.25;font-family:'Geometos Rounded';-inkscape-font-specification:'Geometos Rounded';text-align:end;letter-spacing:0px;word-spacing:0px;text-anchor:end;fill:#ffffff;fill-opacity:1;stroke:none;stroke-width:0.59853107"
         id="path838"
         inkscape:connector-curvature="0" />
      <path
         d="m 349.29612,281.7334 39.87653,-79.63814 q 0.68951,-1.37902 2.29836,-1.37902 1.60886,0 2.29836,1.37902 l 39.87653,79.63814 q 0.68951,1.2641 0.11492,2.18344 -0.45967,0.91935 -1.9536,0.91935 h -10.45754 q -1.49393,0 -2.98786,-0.91935 -1.49394,-0.91934 -2.06853,-2.29835 l -3.44754,-6.89508 q -0.6895,-1.2641 -2.18344,-2.18344 -1.37901,-0.91935 -2.87295,-0.91935 h -32.6367 q -1.49393,0 -2.98786,0.91935 -1.49394,0.91934 -2.06853,2.29836 l -3.33262,6.78016 q -0.68951,1.37901 -2.18344,2.29835 -1.37901,0.91935 -2.87295,0.91935 h -10.45753 q -1.49394,0 -2.06853,-0.91935 -0.45967,-0.91934 0.11492,-2.18344 z m 33.67096,-24.13277 h 17.00786 q 1.49394,0 1.95361,-0.91934 0.57459,-1.03426 0,-2.29836 l -8.9636,-18.96146 q -0.57459,-1.37902 -1.49394,-1.37902 -0.91934,0 -1.49393,1.37902 l -9.07852,18.96146 q -0.57459,1.37901 0,2.29836 0.57459,0.91934 2.06852,0.91934 z"
         style="font-style:normal;font-variant:normal;font-weight:normal;font-stretch:normal;font-size:192px;line-height:1.25;font-family:'Geometos Rounded';-inkscape-font-specification:'Geometos Rounded';text-align:end;letter-spacing:0px;word-spacing:0px;text-anchor:end;fill:#ffffff;fill-opacity:1;stroke:none;stroke-width:0.59853107"
         id="path840"
         inkscape:connector-curvature="0" />
      <path
         d="m 485.79711,214.96607 h -16.89294 q -1.49393,0 -2.52819,1.03426 -1.03427,1.03426 -1.03427,2.5282 v 62.7452 q 0,1.49394 -1.03426,2.5282 -1.03426,1.03426 -2.52819,1.03426 h -8.9636 q -1.49394,0 -2.5282,-1.03426 -1.03426,-1.03426 -1.03426,-2.5282 v -62.7452 q 0,-1.49394 -1.03426,-2.5282 -1.03426,-1.03426 -2.5282,-1.03426 h -17.00785 q -1.49394,0 -2.5282,-1.03426 -1.03426,-1.03426 -1.03426,-2.5282 v -7.12491 q 0,-1.49393 1.03426,-2.5282 1.03426,-1.03426 2.5282,-1.03426 h 57.11422 q 1.49393,0 2.5282,1.03426 1.03426,1.03427 1.03426,2.5282 v 7.12491 q 0,1.49394 -1.03426,2.5282 -1.03427,1.03426 -2.5282,1.03426 z"
         style="font-style:normal;font-variant:normal;font-weight:normal;font-stretch:normal;font-size:192px;line-height:1.25;font-family:'Geometos Rounded';-inkscape-font-specification:'Geometos Rounded';text-align:end;letter-spacing:0px;word-spacing:0px;text-anchor:end;fill:#ffffff;fill-opacity:1;stroke:none;stroke-width:0.59853107"
         id="path842"
         inkscape:connector-curvature="0" />
      <path
         sodipodi:nodetypes="ccccczzcczzzcccccccczzcccccccccccccccccccccccccccccccccccccccccccccccccccccccccccccccccccccccccccccccccccccccccccccccccccccccccccccccccccccccccccccccccccccccc"
         inkscape:connector-curvature="0"
         id="path871"
         d="m 35.847484,269.97598 -0.264583,-3.43958 -0.352346,-3.07784 -0.561266,-1.87089 -1.964432,-3.18051 c 0,0 -1.985616,-2.03594 -2.872477,-2.60222 -0.886861,-0.56628 -1.028546,-0.704 -2.085376,-1.04601 -1.05683,-0.34201 -4.14335,-0.71528 -4.14335,-0.71528 l -3.620833,-0.11527 c 0,0 -2.255517,0.1134 -3.48854,0.42898 -1.233024,0.31557 -2.361312,0.56878 -3.300478,1.12722 -0.939167,0.55845 -1.808498,1.37627 -2.400055,1.95407 -0.591557,0.5778 -1.6620749,1.90395 -1.6620749,1.90395 l -1.309621,2.89988 -0.888672,4.02241 -0.09354,2.89988 0.0137,1.65121 0.343455,1.59682 0.625062,1.61627 0.561266,1.30962 c 0,0 0.423109,1.00113 0.74033,1.4972 0.317222,0.49607 0.709676,0.91041 1.1693049,1.44994 0.459629,0.53953 1.598279,1.77686 1.598279,1.77686 l 2.619243,2.15152 1.309621,0.88867 1.543483,0.8419 1.403166,0.74835 2.198293,0.65481 2.291837,0.60804 2.712787,0.46773 1.870888,0.23386 1.964432,0.0935 2.619242,0.0935 3.868393,-0.30568 3.147437,-0.48945 4.536903,-1.3564 1.637027,-0.8419 1.403164,-0.84189 1.964432,-1.30963 1.309622,-0.8419 2.619242,-2.15152 2.75956,-2.33861 2.946648,-2.80633 2.338609,-2.80633 2.432154,-3.88209 2.104748,-3.55469 1.356396,-2.38538 1.449938,-3.27405 2.525698,-5.75298 1.449936,-3.92887 1.824118,-5.19171 0.935443,-2.8531 0.888672,-2.99342 1.730569,-6.31425 0.795129,-3.13374 1.543482,-6.31424 1.309623,-5.65944 0.514493,-2.57247 0.467722,-2.47893 1.777343,-10.2431 0.654809,-3.64824 1.216079,-8.65285 1.075759,-6.7352 1.824116,-13.00267 2.899877,-22.17002 0.795126,-4.5369 1.216079,-8.04482 0.841899,-5.42557 2.432152,-14.78001 2.806334,-12.30109 1.96443,-8.231903 1.87089,-5.519118 1.63703,-4.115954 1.07576,-2.198291 0.74835,-1.496709 2.05798,-2.712788 1.49671,-1.543482 1.26285,-0.795128 1.12253,-0.327405 h 1.16931 l 0.70158,0.374177 0.46772,0.514494 0.51449,1.590254 0.28064,1.824116 0.3274,2.993421 0.37418,2.57247 0.56127,2.057976 0.88867,2.057978 1.30962,2.151521 1.44994,1.543482 1.73057,1.262848 2.61924,1.216077 1.91766,0.514493 2.66602,0.233863 h 3.1805 l 2.57248,-0.467723 2.47892,-0.795126 1.3564,-0.888672 1.21607,-1.028989 1.96443,-2.385382 1.3564,-3.133737 0.28063,-1.122533 0.60804,-2.99342 0.0468,-3.040192 -0.18709,-1.870888 -0.42095,-1.683799 -0.60804,-1.590254 -1.30962,-2.151521 -1.73057,-2.198293 -1.12253,-1.169305 -1.77734,-1.449937 -2.80633,-1.824116 -3.41438,-1.637027 -3.22728,-0.795127 -2.57247,-0.374178 -3.08696,-0.187088 -4.16272,-0.04677 -3.97564,0.327405 -2.94665,0.748355 -3.60146,1.262849 -2.57247,1.216077 -3.83532,2.104749 -3.367599,2.525698 -4.02241,4.022409 -2.385381,2.993421 -2.291838,2.993418 -2.899875,4.770766 -2.75956,5.659435 -2.759558,6.173929 -1.870889,4.864304 -3.601457,10.80437 -2.525701,9.63508 -0.982216,3.83532 -2.432152,11.78659 -2.011205,11.55273 -0.841899,4.67722 -1.028989,6.26747 -1.543482,12.34786 -1.122532,7.43678 -1.403166,10.10279 -0.982216,7.53033 -1.964432,13.84457 -3.741776,23.29255 -2.198292,10.05602 -1.122533,5.09817 -0.701582,2.43215 -2.291838,7.53032 -2.151522,5.61267 -1.870888,3.78855 -1.449936,2.10474 -1.730572,1.77735 -0.888672,0.74835 -1.356393,0.60804 -1.075762,0.0468 -0.88867,-0.46772 -0.701582,-0.88867 -0.654813,-1.6838 z"
         style="fill:#ffffff;fill-opacity:1;stroke:none;stroke-width:0.26458347px;stroke-linecap:butt;stroke-linejoin:miter;stroke-opacity:1" />
    </g>
  </g>
</svg>
