<?xml version="1.0" encoding="UTF-8"?>
<!-- Created with Inkscape (http://www.inkscape.org/) -->
<svg width="1823.7" height="849.59" version="1.1" viewBox="0 0 482.52 224.79" xmlns="http://www.w3.org/2000/svg" xmlns:cc="http://creativecommons.org/ns#" xmlns:dc="http://purl.org/dc/elements/1.1/" xmlns:rdf="http://www.w3.org/1999/02/22-rdf-syntax-ns#">
 <metadata>
  <rdf:RDF>
   <cc:Work rdf:about="">
    <dc:format>image/svg+xml</dc:format>
    <dc:type rdf:resource="http://purl.org/dc/dcmitype/StillImage"/>
    <dc:title/>
   </cc:Work>
  </rdf:RDF>
 </metadata>
 <g transform="translate(-6.8407 -62.057)">
  <rect transform="rotate(39.212)" x="274.01" y="113.63" width="2.6204" height="1.3229" ry=".023005"/>
  <path d="m155.05 267.14q-1.1492 1.6088-2.4133 3.2177-1.1492 1.4939-2.5282 2.8729-3.7923 4.0221-8.9636 7.01-2.4133 1.4939-5.0564 2.6431t-5.5161 1.9536q-5.8608 1.6088-11.722 1.6088-8.9636 0-16.893-3.4475-7.9293-3.4475-13.905-9.4233-5.8608-5.8608-9.3084-13.79t-3.4475-16.893 3.4475-16.893q3.4475-7.8144 9.3084-13.905 6.0907-5.8608 13.905-9.3084 7.9293-3.4475 16.893-3.4475 5.8608 0 11.722 1.6088 5.7459 1.6088 10.572 4.4818 2.5282 1.4939 4.7116 3.3326 2.2984 1.7238 4.252 3.6774 2.873 2.9879 4.9415 6.0907 0.80443 1.2641 0.34476 2.5282-0.45967 1.1492-1.8387 1.7238l-8.5039 3.4475q-1.2641 0.57459-2.873 0.22984-1.4939-0.45968-2.4133-1.6089-0.57459-0.57459-1.1492-1.1492-0.57459-0.6895-1.1492-1.2641-1.2641-1.2641-2.6431-2.2984-1.2641-1.0343-2.758-1.9536-1.4939-0.91934-3.1028-1.6088t-3.2177-1.2641q-3.3326-1.0343-6.8951-1.0343-5.631 0-10.802 2.2984-5.0564 2.4133-8.6188 6.3205-3.6774 4.0221-5.8608 9.0785-2.1834 5.1713-2.1834 10.917 0 5.8608 2.1834 10.917t5.8608 9.0785q3.5625 4.0221 8.6188 6.2056 4.9415 2.4133 10.802 2.4133 3.5624 0 6.8951-1.0343 1.6089-0.57459 3.2177-1.2641 1.6088-0.68951 3.1028-1.6089 1.4939-0.91934 2.758-1.9536 1.379-1.1492 2.6431-2.4133 0.57459-0.57459 1.1492-1.1492 0.57459-0.68951 1.1492-1.2641 0.91934-1.1492 2.4133-1.6089 1.6088-0.45967 2.873 0.11492l8.5039 3.4475q1.379 0.57459 1.8387 1.8387t-0.34476 2.5282z"/>
  <path d="m158.74 281.73 39.877-79.638q0.68951-1.379 2.2984-1.379 1.6089 0 2.2984 1.379l39.877 79.638q0.68951 1.2641 0.11492 2.1834-0.45967 0.91935-1.9536 0.91935h-10.458q-1.4939 0-2.9879-0.91935-1.4939-0.91934-2.0685-2.2984l-3.4475-6.8951q-0.6895-1.2641-2.1834-2.1834-1.379-0.91935-2.873-0.91935h-32.637q-1.4939 0-2.9879 0.91935-1.4939 0.91934-2.0685 2.2984l-3.3326 6.7802q-0.68951 1.379-2.1834 2.2984-1.379 0.91935-2.873 0.91935h-10.458q-1.4939 0-2.0685-0.91935-0.45967-0.91934 0.11492-2.1834zm33.671-24.133h17.008q1.4939 0 1.9536-0.91934 0.57459-1.0343 0-2.2984l-8.9636-18.961q-0.57459-1.379-1.4939-1.379-0.91934 0-1.4939 1.379l-9.0785 18.961q-0.57459 1.379 0 2.2984 0.57459 0.91934 2.0685 0.91934z"/>
  <path d="m339.21 202.67v78.604q0 1.4939-1.0343 2.5282-1.0343 1.0343-2.4133 1.0343h-9.0785q-1.4939 0-2.5282-1.0343t-1.0343-2.5282v-35.395q0-1.4939-0.68951-1.7238-0.57459-0.34475-1.4939 0.91934l-21.834 26.086q-0.91935 1.1492-2.2984 1.1492-1.2641 0-2.1834-1.1492l-21.72-26.086q-0.91934-1.1492-1.6088-0.91934t-0.68951 1.7238v35.395q0 1.4939-1.0343 2.5282t-2.5282 1.0343h-8.9636q-1.4939 0-2.5282-1.0343t-1.0343-2.5282v-78.604q0-1.4939 1.379-1.7238 1.379-0.22984 2.2984 0.91934l36.314 44.818q0.91934 1.0343 2.2984 1.0343 1.379 0 2.2984-1.0343l36.429-44.818q0.91934-1.1492 2.2984-0.91934 1.379 0.22983 1.379 1.7238z"/>
  <path d="m349.3 281.73 39.877-79.638q0.68951-1.379 2.2984-1.379 1.6089 0 2.2984 1.379l39.877 79.638q0.68951 1.2641 0.11492 2.1834-0.45967 0.91935-1.9536 0.91935h-10.458q-1.4939 0-2.9879-0.91935-1.4939-0.91934-2.0685-2.2984l-3.4475-6.8951q-0.6895-1.2641-2.1834-2.1834-1.379-0.91935-2.873-0.91935h-32.637q-1.4939 0-2.9879 0.91935-1.4939 0.91934-2.0685 2.2984l-3.3326 6.7802q-0.68951 1.379-2.1834 2.2984-1.379 0.91935-2.873 0.91935h-10.458q-1.4939 0-2.0685-0.91935-0.45967-0.91934 0.11492-2.1834zm33.671-24.133h17.008q1.4939 0 1.9536-0.91934 0.57459-1.0343 0-2.2984l-8.9636-18.961q-0.57459-1.379-1.4939-1.379-0.91934 0-1.4939 1.379l-9.0785 18.961q-0.57459 1.379 0 2.2984 0.57459 0.91934 2.0685 0.91934z"/>
  <path d="m485.8 214.97h-16.893q-1.4939 0-2.5282 1.0343-1.0343 1.0343-1.0343 2.5282v62.745q0 1.4939-1.0343 2.5282t-2.5282 1.0343h-8.9636q-1.4939 0-2.5282-1.0343t-1.0343-2.5282v-62.745q0-1.4939-1.0343-2.5282t-2.5282-1.0343h-17.008q-1.4939 0-2.5282-1.0343t-1.0343-2.5282v-7.1249q0-1.4939 1.0343-2.5282 1.0343-1.0343 2.5282-1.0343h57.114q1.4939 0 2.5282 1.0343 1.0343 1.0343 1.0343 2.5282v7.1249q0 1.4939-1.0343 2.5282-1.0343 1.0343-2.5282 1.0343z"/>
  <path d="m35.847 269.98-0.26458-3.4396-0.35235-3.0778-0.56127-1.8709-1.9644-3.1805s-1.9856-2.0359-2.8725-2.6022-1.0285-0.704-2.0854-1.046-4.1434-0.71528-4.1434-0.71528l-3.6208-0.11527s-2.2555 0.1134-3.4885 0.42898c-1.233 0.31557-2.3613 0.56878-3.3005 1.1272-0.93917 0.55845-1.8085 1.3763-2.4001 1.9541s-1.6621 1.904-1.6621 1.904l-1.3096 2.8999-0.88867 4.0224-0.09354 2.8999 0.0137 1.6512 0.34346 1.5968 0.62506 1.6163 0.56127 1.3096s0.42311 1.0011 0.74033 1.4972c0.31722 0.49607 0.70968 0.91041 1.1693 1.4499 0.45963 0.53953 1.5983 1.7769 1.5983 1.7769l2.6192 2.1515 1.3096 0.88867 1.5435 0.8419 1.4032 0.74835 2.1983 0.65481 2.2918 0.60804 2.7128 0.46773 1.8709 0.23386 1.9644 0.0935 2.6192 0.0935 3.8684-0.30568 3.1474-0.48945 4.5369-1.3564 1.637-0.8419 1.4032-0.84189 1.9644-1.3096 1.3096-0.8419 2.6192-2.1515 2.7596-2.3386 2.9466-2.8063 2.3386-2.8063 2.4322-3.8821 2.1047-3.5547 1.3564-2.3854 1.4499-3.274 2.5257-5.753 1.4499-3.9289 1.8241-5.1917 0.93544-2.8531 0.88867-2.9934 1.7306-6.3142 0.79513-3.1337 1.5435-6.3142 1.3096-5.6594 0.51449-2.5725 0.46772-2.4789 1.7773-10.243 0.65481-3.6482 1.2161-8.6528 1.0758-6.7352 1.8241-13.003 2.8999-22.17 0.79513-4.5369 1.2161-8.0448 0.8419-5.4256 2.4322-14.78 2.8063-12.301 1.9644-8.2319 1.8709-5.5191 1.637-4.116 1.0758-2.1983 0.74835-1.4967 2.058-2.7128 1.4967-1.5435 1.2628-0.79513 1.1225-0.3274h1.1693l0.70158 0.37418 0.46772 0.51449 0.51449 1.5903 0.28064 1.8241 0.3274 2.9934 0.37418 2.5725 0.56127 2.058 0.88867 2.058 1.3096 2.1515 1.4499 1.5435 1.7306 1.2628 2.6192 1.2161 1.9177 0.51449 2.666 0.23386h3.1805l2.5725-0.46772 2.4789-0.79513 1.3564-0.88867 1.2161-1.029 1.9644-2.3854 1.3564-3.1337 0.28063-1.1225 0.60804-2.9934 0.0468-3.0402-0.18709-1.8709-0.42095-1.6838-0.60804-1.5903-1.3096-2.1515-1.7306-2.1983-1.1225-1.1693-1.7773-1.4499-2.8063-1.8241-3.4144-1.637-3.2273-0.79513-2.5725-0.37418-3.087-0.18709-4.1627-0.04677-3.9756 0.3274-2.9466 0.74836-3.6015 1.2628-2.5725 1.2161-3.8353 2.1047-3.3676 2.5257-4.0224 4.0224-2.3854 2.9934-2.2918 2.9934-2.8999 4.7708-2.7596 5.6594-2.7596 6.1739-1.8709 4.8643-3.6015 10.804-2.5257 9.6351-0.98222 3.8353-2.4322 11.787-2.0112 11.553-0.8419 4.6772-1.029 6.2675-1.5435 12.348-1.1225 7.4368-1.4032 10.103-0.98222 7.5303-1.9644 13.845-3.7418 23.293-2.1983 10.056-1.1225 5.0982-0.70158 2.4322-2.2918 7.5303-2.1515 5.6127-1.8709 3.7886-1.4499 2.1047-1.7306 1.7774-0.88867 0.74835-1.3564 0.60804-1.0758 0.0468-0.88867-0.46772-0.70158-0.88867-0.65481-1.6838z"/>
 </g>
</svg>
