<?xml version="1.0" encoding="UTF-8"?>
<!-- Created with Inkscape (http://www.inkscape.org/) -->
<svg width="412.99" height="539.5" version="1.1" viewBox="0 0 109.27 142.74" xmlns="http://www.w3.org/2000/svg" xmlns:cc="http://creativecommons.org/ns#" xmlns:dc="http://purl.org/dc/elements/1.1/" xmlns:rdf="http://www.w3.org/1999/02/22-rdf-syntax-ns#">
 <metadata>
  <rdf:RDF>
   <cc:Work rdf:about="">
    <dc:format>image/svg+xml</dc:format>
    <dc:type rdf:resource="http://purl.org/dc/dcmitype/StillImage"/>
    <dc:title/>
   </cc:Work>
  </rdf:RDF>
 </metadata>
 <g transform="translate(-17.55 -102.36)">
  <path transform="matrix(.26459 0 0 .26459 18.368 102.32)" d="m325.35 0.125c-156.3 0-163.22 254.64-163.49 269.75-0.73307 191.96-29.325 219.19-43.666 219.19-4.7999 3e-3 -7.8262-7.183-10.076-15.58-10.789-40.266-24.895-55.604-55.604-55.604-8.8122 3e-3 -17.497 2.1003-25.34 6.1191-7.4766 3.1324-13.014 8.0214-17.117 13.59-8.4865 10.035-13.144 22.752-13.146 35.895 0.022677 15.767 6.738 30.782 18.475 41.311 11.891 13.215 32.02 24.826 66.074 24.826 156.3 0 163.22-254.64 163.49-269.75 0.73307-191.96 29.325-219.19 43.666-219.19 4.7999-0.0031 7.8262 7.183 10.076 15.58 10.789 40.266 24.895 55.604 55.604 55.604 8.8122-3e-3 17.497-2.1003 25.34-6.1191 7.4766-3.1325 13.014-8.0214 17.117-13.59 8.4865-10.035 13.144-22.752 13.146-35.895-0.0227-15.767-6.738-30.782-18.475-41.311-11.891-13.215-32.02-24.826-66.074-24.826z" stroke-width=".93396"/>
 </g>
</svg>
