<?xml version="1.0" encoding="UTF-8" standalone="no"?>
<svg
   xmlns:dc="http://purl.org/dc/elements/1.1/"
   xmlns:cc="http://creativecommons.org/ns#"
   xmlns:rdf="http://www.w3.org/1999/02/22-rdf-syntax-ns#"
   xmlns:svg="http://www.w3.org/2000/svg"
   xmlns="http://www.w3.org/2000/svg"
   xmlns:sodipodi="http://sodipodi.sourceforge.net/DTD/sodipodi-0.dtd"
   xmlns:inkscape="http://www.inkscape.org/namespaces/inkscape"
   inkscape:version="1.0 (6e3e5246a0, 2020-05-07)"
   sodipodi:docname="favicon.svg"
   id="svg24"
   viewBox="0 0 154.31705 154.31705"
   role="img"
   aria-labelledby="title desc"
   version="1.1"
   alt="CAMat"
   class="img"
   width="154.31705"
   height="154.31705">
  <defs
     id="defs28" />
  <sodipodi:namedview
     inkscape:guide-bbox="true"
     showguides="true"
     inkscape:current-layer="svg24"
     inkscape:window-maximized="1"
     inkscape:window-y="30"
     inkscape:window-x="0"
     inkscape:cy="75.440255"
     inkscape:cx="76.056758"
     inkscape:zoom="2.8284271"
     showgrid="false"
     id="namedview26"
     inkscape:window-height="705"
     inkscape:window-width="1366"
     inkscape:pageshadow="2"
     inkscape:pageopacity="0"
     guidetolerance="10"
     gridtolerance="10"
     objecttolerance="10"
     borderopacity="1"
     bordercolor="#666666"
     pagecolor="#ffffff"
     inkscape:document-rotation="0"
     fit-margin-top="0"
     fit-margin-left="0"
     fit-margin-right="0"
     fit-margin-bottom="0" />
  <title
     id="title2">CAMat</title>
  <desc
     id="desc4">O símbolo de uma integral ao lado do texto &quot;CAMat&quot; em letras garrafais</desc>
  <metadata
     id="metadata6">
    <rdf:RDF>
      <cc:Work
         rdf:about="">
        <dc:format>image/svg+xml</dc:format>
        <dc:type
           rdf:resource="http://purl.org/dc/dcmitype/StillImage" />
        <dc:title>CAMat</dc:title>
      </cc:Work>
    </rdf:RDF>
  </metadata>
  <path
     d="m 94.387768,1.4631847 c -23.29108,7.926506 -32.24057,30.3510393 -30.83124,62.5579273 0.1534,3.50537 1.1666,9.536672 2.38207,16.707632 3.67067,21.574006 9.11401,53.785086 -1.47782,58.388876 -2.94771,0.92973 -3.72777,-1.87801 -4.37923,-3.94348 -2.45414,-7.782 -10.90094,-13.29938 -18.48107,-10.90903 -7.58091,2.39038 -11.73661,10.63783 -9.28161,18.42038 1.21782,3.85932 4.74816,7.6323 7.35997,8.99161 5.76039,2.99794 13.15924,3.51565 20.44947,1.17676 23.29109,-7.92649 32.24056,-30.35104 30.83123,-62.557926 -0.1534,-3.50536 -1.16659,-9.53667 -2.38206,-16.70763 -3.67067,-21.573999 -9.11402,-53.785101 1.4778,-58.388879 2.94772,-0.92973 3.72779,1.878018 4.37925,3.943484 2.45415,7.782007 10.900942,13.299379 18.481072,10.90903 7.58091,-2.390377 11.73661,-10.637827 9.28161,-18.420377 -1.21782,-3.8593223 -4.74817,-7.6323093 -7.35999,-8.9916113 -5.76038,-2.99795101 -13.15922,-3.51565901 -20.449452,-1.176766 z"
     style="fill:#ba3925;fill-opacity:1;stroke:none;stroke-width:1.03883"
     id="rect938" />
</svg>
